{
  "accessors": [
    {
      "bufferView": 2,
      "componentType": 5126,
      "count": 14197,
      "max": [
        0.7999851703643799,
        0.7600303888320923,
        0.42541518807411194
      ],
      "min": [
        -0.7999851703643799,
        1.0188098542585067e-07,
        -0.474731981754303
      ],
      "type": "VEC3"
    },
    {
      "bufferView": 2,
      "byteOffset": 170364,
      "componentType": 5126,
      "count": 14197,
      "type": "VEC3"
    },
    {
      "bufferView": 3,
      "componentType": 5126,
      "count": 14197,
      "type": "VEC4"
    },
    {
      "bufferView": 1,
      "componentType": 5126,
      "count": 14197,
      "type": "VEC2"
    },
    {
      "bufferView": 1,
      "byteOffset": 113576,
      "componentType": 5126,
      "count": 14197,
      "type": "VEC2"
    },
    {
      "bufferView": 1,
      "byteOffset": 227152,
      "componentType": 5126,
      "count": 14197,
      "type": "VEC2"
    },
    {
      "bufferView": 0,
      "componentType": 5125,
      "count": 73908,
      "type": "SCALAR"
    }
  ],
  "asset": {
    "generator": "fab-model-conversion",
    "version": "2.0"
  },
  "bufferViews": [
    {
      "buffer": 0,
      "byteLength": 295632,
      "target": 34963
    },
    {
      "buffer": 0,
      "byteLength": 340728,
      "byteOffset": 295632,
      "byteStride": 8,
      "target": 34962
    },
    {
      "buffer": 0,
      "byteLength": 340728,
      "byteOffset": 636360,
      "byteStride": 12,
      "target": 34962
    },
    {
      "buffer": 0,
      "byteLength": 227152,
      "byteOffset": 977088,
      "byteStride": 16,
      "target": 34962
    }
  ],
  "buffers": [
    {
      "byteLength": 1204240,
      "uri": "scene.bin"
    }
  ],
  "images": [
    {
      "uri": "textures/Lasa_Table_baseColor.png"
    },
    {
      "uri": "textures/Lasa_Table_metallicRoughness.png"
    },
    {
      "uri": "textures/Lasa_Table_normal.png"
    }
  ],
  "materials": [
    {
      "doubleSided": true,
      "name": "Lasa_Table",
      "normalTexture": {
        "index": 2
      },
      "pbrMetallicRoughness": {
        "baseColorTexture": {
          "index": 0
        },
        "metallicRoughnessTexture": {
          "index": 1
        }
      }
    }
  ],
  "meshes": [
    {
      "name": "Lasa Table_Lasa_Table_0",
      "primitives": [
        {
          "attributes": {
            "NORMAL": 1,
            "POSITION": 0,
            "TANGENT": 2,
            "TEXCOORD_0": 3,
            "TEXCOORD_1": 4,
            "TEXCOORD_2": 5
          },
          "indices": 6,
          "material": 0,
          "mode": 4
        }
      ]
    }
  ],
  "nodes": [
    {
      "children": [
        1
      ],
      "matrix": [
        1.0,
        0.0,
        0.0,
        0.0,
        0.0,
        2.220446049250313e-16,
        -1.0,
        0.0,
        0.0,
        1.0,
        2.220446049250313e-16,
        0.0,
        0.0,
        0.0,
        0.0,
        1.0
      ],
      "name": "Sketchfab_model"
    },
    {
      "children": [
        2
      ],
      "matrix": [
        0.009999999776482582,
        0.0,
        0.0,
        0.0,
        0.0,
        0.0,
        0.009999999776482582,
        0.0,
        0.0,
        -0.009999999776482582,
        0.0,
        0.0,
        0.0,
        0.0,
        0.0,
        1.0
      ],
      "name": "a70d64df56fb45a3bc1237d535ae6990.fbx"
    },
    {
      "children": [
        3
      ],
      "name": "RootNode"
    },
    {
      "children": [
        4
      ],
      "matrix": [
        100.0,
        0.0,
        0.0,
        0.0,
        0.0,
        99.99999999999866,
        1.6292067073209114e-05,
        0.0,
        0.0,
        -1.6292067073209114e-05,
        99.99999999999866,
        0.0,
        0.0,
        0.0,
        0.0,
        1.0
      ],
      "name": "Lasa Table"
    },
    {
      "mesh": 0,
      "name": "Lasa Table_Lasa_Table_0"
    }
  ],
  "samplers": [
    {
      "magFilter": 9729,
      "minFilter": 9987,
      "wrapS": 10497,
      "wrapT": 10497
    }
  ],
  "scene": 0,
  "scenes": [
    {
      "name": "Sketchfab_Scene",
      "nodes": [
        0
      ]
    }
  ],
  "textures": [
    {
      "sampler": 0,
      "source": 0
    },
    {
      "sampler": 0,
      "source": 1
    },
    {
      "sampler": 0,
      "source": 2
    }
  ]
}
